<svg id="Capa_2" data-name="Capa 2" xmlns="http://www.w3.org/2000/svg" viewBox="0 0 500 500"><defs><style>.cls-1{fill:#f9b233;}.cls-2{fill:#be1622;}.cls-3{fill:#009640;}.cls-4{fill:#2fac66;}.cls-5{fill:#2d4f83;}.cls-6{fill:#ededed;}.cls-7{fill:#dadada;}.cls-8{fill:none;stroke:#1d71b8;stroke-miterlimit:10;}.cls-9{fill:#1d71b8;}</style></defs><polygon class="cls-1" points="156.46 168.27 203.6 241.76 156.46 324.72 223.74 325.03 269.48 241.46 225.88 168.27 156.46 168.27"/><polygon class="cls-2" points="252.88 280.99 274.53 241.56 254.6 206.95 280.17 168.27 346.46 168.27 299.67 241.46 343.6 324.72 278.17 324.72 252.88 280.99"/><path class="cls-3" d="M373.58,316.24s-12.82,14.94-14.29,20.5c-1.62,6.11,3.17,24.74,3.17,24.74s18.34-16.15,19.7-22.62C383.37,333.08,373.58,316.24,373.58,316.24Z"/><path class="cls-3" d="M347,350s-15.77,13.63-18.37,19c-2.86,5.91-1.94,24.79-1.94,24.79s21.48-14.32,24.16-20.61C353.19,367.55,347,350,347,350Z"/><path class="cls-3" d="M387.22,279.33s-8.1,16.34-7.89,22c.24,6.2,10.5,23.82,10.5,23.82s13.15-18.25,12.55-24.78C401.85,294.54,387.22,279.33,387.22,279.33Z"/><path class="cls-3" d="M390.32,243.24s-2.75,17.11-.75,22.6c2.2,6,17.81,21.82,17.81,21.82s7.08-19.69,4.42-26C409.44,256.06,390.32,243.24,390.32,243.24Z"/><path class="cls-3" d="M382.51,207.08s2,17.15,5.5,22.3c3.82,5.67,23.52,19.27,23.52,19.27s1.52-20.21-2.82-26.07C404.84,217.35,382.51,207.08,382.51,207.08Z"/><path class="cls-3" d="M366.75,170.82s5.84,16.76,10.44,21.51c5.06,5.21,27.59,16.71,27.59,16.71s-3-20.14-8.64-25.5C391.13,178.75,366.75,170.82,366.75,170.82Z"/><path class="cls-4" d="M397.09,371.87s-28.86,3.43-36.85,6.94c-9.61,4.23-28.91,23.89-28.91,23.89s30.85-3.75,39.28-7.61C379.63,391,397.09,371.87,397.09,371.87Z"/><path class="cls-4" d="M426.15,330.37s-25.47,6.18-31.91,10.42c-7.75,5.11-20.66,26.38-20.66,26.38s27.2-6.68,33.95-11.31C414.77,350.91,426.15,330.37,426.15,330.37Z"/><path class="cls-4" d="M442.57,288.89s-22.95,8.82-28.06,13.68c-6.14,5.85-13.08,28.15-13.08,28.15s24.47-9.5,29.79-14.78C436.92,310.3,442.57,288.89,442.57,288.89Z"/><path class="cls-4" d="M445.87,247.69s-18.82,10.8-22.23,15.89c-4.11,6.13-4.57,27.59-4.57,27.59s20-11.61,23.54-17.11C446.36,268.18,445.87,247.69,445.87,247.69Z"/><path class="cls-4" d="M438.09,207.64s-14.71,9.58-16.84,14.52C418.7,228.1,422,250,422,250s15.66-10.32,17.78-15.66C442.1,228.62,438.09,207.64,438.09,207.64Z"/><path class="cls-4" d="M422.72,172.44s-11.52,11.25-12.31,16.12c-.94,5.86,7.59,25.27,7.59,25.27s12.23-12.08,12.92-17.32C431.66,190.9,422.72,172.44,422.72,172.44Z"/><path class="cls-4" d="M399,172.44s4.55-15.11,2.22-19.83c-2.66-5.42-22.24-17.34-22.24-17.34s-2.75,16.34,0,21.35C381.65,161.48,399,172.44,399,172.44Z"/><path class="cls-3" d="M129.33,316.57s12.82,15,14.3,20.54c1.62,6.13-3.18,24.78-3.18,24.78s-18.34-16.18-19.7-22.66C119.54,333.44,129.33,316.57,129.33,316.57Z"/><path class="cls-3" d="M156,350.36s15.77,13.66,18.38,19.05c2.86,5.92,1.93,24.84,1.93,24.84s-21.48-14.36-24.16-20.65C149.72,368,156,350.36,156,350.36Z"/><path class="cls-3" d="M115.69,279.59s8.11,16.37,7.89,22c-.24,6.22-10.5,23.87-10.5,23.87s-13.15-18.29-12.55-24.82C101.07,294.84,115.69,279.59,115.69,279.59Z"/><path class="cls-3" d="M108.43,243.44s2.75,17.14.75,22.64c-2.2,6-17.8,21.86-17.8,21.86s-7.08-19.72-4.43-26C89.32,256.28,108.43,243.44,108.43,243.44Z"/><path class="cls-3" d="M120.4,207.21s-2,17.18-5.5,22.35c-3.82,5.67-23.52,19.3-23.52,19.3s-1.52-20.25,2.82-26.12C98.07,217.5,120.4,207.21,120.4,207.21Z"/><path class="cls-3" d="M136.16,170.88s-5.84,16.79-10.44,21.55c-5,5.23-27.59,16.75-27.59,16.75s3-20.18,8.64-25.55C111.78,178.83,136.16,170.88,136.16,170.88Z"/><path class="cls-4" d="M105.82,372.31s28.87,3.43,36.85,6.95c9.62,4.24,28.91,23.93,28.91,23.93s-30.85-3.76-39.28-7.62C123.28,391.43,105.82,372.31,105.82,372.31Z"/><path class="cls-4" d="M76.77,330.73s25.46,6.19,31.9,10.44c7.75,5.11,20.66,26.43,20.66,26.43s-27.19-6.7-34-11.33C88.14,351.31,76.77,330.73,76.77,330.73Z"/><path class="cls-4" d="M60.35,289.18S83.29,298,88.4,302.88c6.15,5.86,13.09,28.2,13.09,28.2s-24.48-9.52-29.8-14.8C66,310.62,60.35,289.18,60.35,289.18Z"/><path class="cls-4" d="M57.05,247.9s18.81,10.82,22.22,15.92c4.11,6.14,4.57,27.64,4.57,27.64s-20-11.64-23.54-17.14C56.55,268.43,57.05,247.9,57.05,247.9Z"/><path class="cls-4" d="M64.82,207.78s14.72,9.59,16.84,14.54c2.55,6-.79,27.89-.79,27.89s-15.65-10.34-17.78-15.69C60.81,228.79,64.82,207.78,64.82,207.78Z"/><path class="cls-4" d="M80.19,172.51s11.52,11.27,12.31,16.15c1,5.87-7.59,25.32-7.59,25.32S72.68,201.87,72,196.62C71.25,191,80.19,172.51,80.19,172.51Z"/><path class="cls-4" d="M103.91,172.51s-4.54-15.14-2.22-19.87c2.66-5.43,22.24-17.37,22.24-17.37s2.75,16.37,0,21.39C121.27,161.53,103.91,172.51,103.91,172.51Z"/><path class="cls-5" d="M298.67,366.44V427H269.8c-3.78,0-7.33,2.27-9.55,6.12l-2.05,3.54H244.72l-2.05-3.54c-2.22-3.85-5.77-6.12-9.55-6.12H204.25v-60.6l47.21.88Z"/><path class="cls-6" d="M251.46,429.67V367.32h0c-8.41-9.06-19.11-14.05-30.18-14.05h-6.22v62.35l4.75.1c11.41.22,22.46,5.07,31.51,13.82Z"/><path class="cls-7" d="M251.46,429.67V367.32h0c8.4-9.06,19.11-14.05,30.18-14.05h6.22v62.35l-4.76.1c-11.41.22-22.46,5.07-31.51,13.82Z"/><polyline class="cls-5" points="214.89 103.16 214.89 130.79 252.31 145.05 290.93 129.87 290.93 102.21"/><line class="cls-8" x1="309.65" y1="94.15" x2="310.26" y2="135.16"/><circle class="cls-5" cx="310.26" cy="139.07" r="3.91"/><polygon class="cls-9" points="314.84 91.91 252.31 118.84 188.07 91.91 252.31 64.99 314.84 91.91"/></svg>