<svg id="Capa_3" data-name="Capa 3" xmlns="http://www.w3.org/2000/svg" viewBox="0 0 477.26 371.72"><defs><style>.cls-1{fill:#f9b233;}.cls-2{fill:#be1622;}.cls-3{fill:#009640;}.cls-4{fill:#2fac66;}.cls-10,.cls-5{fill:#2d4f83;}.cls-6{fill:#ededed;}.cls-7{fill:#dadada;}.cls-8{fill:none;stroke:#1d71b8;stroke-miterlimit:10;}.cls-9{fill:#1d71b8;}.cls-10{font-size:51px;font-family:MyriadPro-Regular, Myriad Pro;}.cls-11{letter-spacing:-0.01em;}.cls-12{letter-spacing:-0.02em;}.cls-13{letter-spacing:-0.01em;}.cls-14{font-size:18px;fill:#000;}.cls-15{letter-spacing:-0.01em;}.cls-16{letter-spacing:0em;}.cls-17{letter-spacing:-0.01em;}.cls-18{letter-spacing:-0.04em;}.cls-19{letter-spacing:-0.06em;}.cls-20{letter-spacing:0em;}.cls-21{letter-spacing:-0.01em;}</style></defs><polygon class="cls-1" points="30.55 137.98 45.04 160.57 30.55 186.06 51.23 186.15 65.28 160.47 51.89 137.98 30.55 137.98"/><polygon class="cls-2" points="60.18 172.62 66.83 160.5 60.71 149.87 68.57 137.98 88.94 137.98 74.56 160.47 88.06 186.06 67.95 186.06 60.18 172.62"/><path class="cls-3" d="M97.27,183.45s-3.94,4.59-4.39,6.3c-.5,1.88,1,7.6,1,7.6s5.64-5,6.06-6.95C100.28,188.63,97.27,183.45,97.27,183.45Z"/><path class="cls-3" d="M89.09,193.81s-4.85,4.19-5.65,5.85c-.88,1.81-.6,7.61-.6,7.61s6.61-4.4,7.43-6.33C91,199.22,89.09,193.81,89.09,193.81Z"/><path class="cls-3" d="M101.46,172.11s-2.49,5-2.42,6.76c.07,1.9,3.22,7.32,3.22,7.32s4-5.61,3.86-7.62C106,176.78,101.46,172.11,101.46,172.11Z"/><path class="cls-3" d="M102.41,161s-.84,5.26-.23,6.94c.68,1.86,5.47,6.71,5.47,6.71s2.18-6,1.36-8C108.29,165,102.41,161,102.41,161Z"/><path class="cls-3" d="M100,149.91s.62,5.27,1.69,6.85c1.18,1.74,7.23,5.92,7.23,5.92s.47-6.21-.87-8C106.87,153.06,100,149.91,100,149.91Z"/><path class="cls-3" d="M95.17,138.77s1.8,5.15,3.21,6.61,8.48,5.13,8.48,5.13-.94-6.19-2.66-7.84C102.66,141.2,95.17,138.77,95.17,138.77Z"/><path class="cls-4" d="M104.49,200.54s-8.87,1.06-11.32,2.14c-3,1.3-8.88,7.34-8.88,7.34s9.48-1.16,12.07-2.34C99.13,206.41,104.49,200.54,104.49,200.54Z"/><path class="cls-4" d="M113.42,187.79s-7.82,1.9-9.8,3.2c-2.38,1.57-6.35,8.11-6.35,8.11s8.36-2,10.43-3.47C109.93,194.1,113.42,187.79,113.42,187.79Z"/><path class="cls-4" d="M118.47,175.05s-7,2.71-8.62,4.2c-1.89,1.8-4,8.65-4,8.65s7.52-2.92,9.15-4.54S118.47,175.05,118.47,175.05Z"/><path class="cls-4" d="M119.48,162.39s-5.78,3.32-6.83,4.88c-1.26,1.88-1.4,8.48-1.4,8.48s6.16-3.57,7.23-5.26S119.48,162.39,119.48,162.39Z"/><path class="cls-4" d="M117.09,150.08s-4.52,2.94-5.17,4.46c-.79,1.83.24,8.56.24,8.56s4.81-3.17,5.46-4.82S117.09,150.08,117.09,150.08Z"/><path class="cls-4" d="M112.37,139.27s-3.54,3.45-3.78,4.95c-.29,1.8,2.33,7.76,2.33,7.76s3.76-3.71,4-5.32S112.37,139.27,112.37,139.27Z"/><path class="cls-4" d="M105.08,139.27s1.4-4.65.68-6.1c-.82-1.66-6.83-5.33-6.83-5.33s-.85,5,0,6.56S105.08,139.27,105.08,139.27Z"/><path class="cls-3" d="M22.22,183.55s3.94,4.6,4.39,6.31c.5,1.89-1,7.62-1,7.62s-5.63-5-6.05-7C19.21,188.74,22.22,183.55,22.22,183.55Z"/><path class="cls-3" d="M30.4,193.94s4.85,4.19,5.65,5.85c.88,1.82.59,7.63.59,7.63S30,203,29.22,201.07C28.48,199.35,30.4,193.94,30.4,193.94Z"/><path class="cls-3" d="M18,172.19s2.49,5,2.42,6.77c-.07,1.91-3.22,7.33-3.22,7.33s-4.05-5.62-3.86-7.62C13.53,176.87,18,172.19,18,172.19Z"/><path class="cls-3" d="M15.8,161.08s.84,5.27.23,7c-.68,1.86-5.47,6.71-5.47,6.71s-2.18-6.06-1.36-8C9.92,165,15.8,161.08,15.8,161.08Z"/><path class="cls-3" d="M19.47,150s-.62,5.28-1.69,6.87c-1.17,1.74-7.22,5.93-7.22,5.93s-.47-6.23.86-8C12.61,153.11,19.47,150,19.47,150Z"/><path class="cls-3" d="M24.32,138.79s-1.8,5.16-3.21,6.62-8.48,5.14-8.48,5.14.93-6.2,2.66-7.85C16.83,141.23,24.32,138.79,24.32,138.79Z"/><path class="cls-4" d="M15,200.68s8.87,1,11.33,2.14c2.95,1.3,8.88,7.35,8.88,7.35s-9.48-1.16-12.07-2.34C20.36,206.55,15,200.68,15,200.68Z"/><path class="cls-4" d="M6.07,187.9s7.82,1.9,9.8,3.21c2.38,1.57,6.35,8.12,6.35,8.12s-8.36-2.06-10.44-3.48S6.07,187.9,6.07,187.9Z"/><path class="cls-4" d="M1,175.13s7.05,2.72,8.62,4.21c1.89,1.81,4,8.67,4,8.67s-7.52-2.93-9.15-4.55S1,175.13,1,175.13Z"/><path class="cls-4" d="M0,162.45s5.78,3.33,6.83,4.89c1.26,1.89,1.4,8.5,1.4,8.5S2.08,172.26,1,170.57,0,162.45,0,162.45Z"/><path class="cls-4" d="M2.4,150.12s4.52,2.95,5.17,4.47c.78,1.83-.24,8.57-.24,8.57S2.52,160,1.86,158.34,2.4,150.12,2.4,150.12Z"/><path class="cls-4" d="M7.12,139.29s3.54,3.46,3.78,5c.29,1.8-2.33,7.78-2.33,7.78s-3.76-3.72-4-5.34S7.12,139.29,7.12,139.29Z"/><path class="cls-4" d="M14.41,139.29s-1.4-4.65-.69-6.11c.82-1.67,6.84-5.34,6.84-5.34s.84,5,0,6.58S14.41,139.29,14.41,139.29Z"/><path class="cls-5" d="M74.25,198.88V217.5H65.38a3.48,3.48,0,0,0-2.94,1.88l-.63,1.09H57.67L57,219.38a3.45,3.45,0,0,0-2.93-1.88H45.24V198.88l14.5.27Z"/><path class="cls-6" d="M59.74,218.31V199.15h0a12.65,12.65,0,0,0-9.27-4.32H48.56V214L50,214a14.33,14.33,0,0,1,9.68,4.25Z"/><path class="cls-7" d="M59.74,218.31V199.15h0A12.69,12.69,0,0,1,69,194.83h1.91V214l-1.46,0a14.33,14.33,0,0,0-9.68,4.25Z"/><polyline class="cls-5" points="48.51 117.97 48.51 126.47 60.01 130.85 71.87 126.19 71.87 117.68"/><line class="cls-8" x1="77.62" y1="115.21" x2="77.81" y2="127.81"/><circle class="cls-5" cx="77.81" cy="129.01" r="1.2"/><polygon class="cls-9" points="79.22 114.52 60.01 122.79 40.27 114.52 60.01 106.25 79.22 114.52"/><text class="cls-10" transform="translate(128.69 171.09)"><tspan class="cls-11">A</tspan><tspan x="30.6" y="0">cademia </tspan><tspan class="cls-12" x="222.21" y="0">L</tspan><tspan x="245.51" y="0">u</tspan><tspan class="cls-13" x="273.61" y="0">x</tspan><tspan x="296.46" y="0">or</tspan><tspan class="cls-14"><tspan class="cls-15" x="0" y="21.6">C</tspan><tspan x="10.31" y="21.6">apacitación y </tspan><tspan class="cls-16" x="113.07" y="21.6">D</tspan><tspan x="125.13" y="21.6">esa</tspan><tspan class="cls-16" x="149.95" y="21.6">r</tspan><tspan class="cls-17" x="155.91" y="21.6">r</tspan><tspan x="161.62" y="21.6">ollo del</tspan><tspan class="cls-18" x="217.11" y="21.6"> </tspan><tspan class="cls-19" x="220.19" y="21.6">T</tspan><tspan x="227.98" y="21.6">ale</tspan><tspan class="cls-20" x="249.92" y="21.6">n</tspan><tspan class="cls-21" x="259.84" y="21.6">t</tspan><tspan x="265.69" y="21.6">o Humano</tspan></tspan></text></svg>