<svg id="encuesta" xmlns="http://www.w3.org/2000/svg" viewBox="0 0 24 24"><defs><style>.cls-1{fill:#1d71b8;}.cls-2{fill:#f5c763;}.cls-3{fill:#e94e1b;}</style></defs><path class="cls-1" d="M0,13.5V11.72c.07,0,.05-.1.05-.15a13,13,0,0,1,.26-1.52A10.79,10.79,0,0,1,10.5,1.81c.24,0,.3,0,.3.29V12.36a.53.53,0,0,0,.16.41c.69.67,1.36,1.35,2,2l5.29,5.28c.11.11.14.17,0,.29a10.35,10.35,0,0,1-1.21,1,10.51,10.51,0,0,1-11.28.78,10.39,10.39,0,0,1-5.63-7.6A7.43,7.43,0,0,0,0,13.5Z"/><path class="cls-2" d="M24,13.5a6.23,6.23,0,0,0-.18,1.05A10.78,10.78,0,0,1,21,20.08c-.12.13-.19.12-.31,0l-7.32-7.33c-.13-.13-.11-.19,0-.31l7.32-7.32c.12-.13.18-.13.3,0a10.63,10.63,0,0,1,2.93,6.15,1.26,1.26,0,0,0,.09.5Z"/><path class="cls-3" d="M12.38,11.39a.33.33,0,0,1-.09-.3c0-3.4,0-6.79,0-10.19,0-.23.05-.3.3-.3a10.75,10.75,0,0,1,7.23,3c.17.15,0,.22,0,.3L12.68,11C12.57,11.14,12.48,11.27,12.38,11.39Z"/></svg>