<svg id="enlace" xmlns="http://www.w3.org/2000/svg" viewBox="0 0 24 24"><defs><style>.cls-1{fill:#82368c;}</style></defs><path class="cls-1" d="M0,6.94c.09-.32.15-.65.27-1A4,4,0,0,1,4,3.42H8.56V6.86H4.21c-.6,0-.78.18-.78.79V19.79c0,.59.19.78.79.78H16.45c.47,0,.68-.21.68-.69,0-1.38,0-2.77,0-4.15v-.29h3.45V20A4,4,0,0,1,17.17,24s-.07,0-.11,0H3.52s-.07,0-.11,0a4,4,0,0,1-3.2-2.67A7.4,7.4,0,0,1,0,20.48Z"/><path class="cls-1" d="M24,12H20.57V5.91L9.83,16.65,7.39,14.22,18.1,3.51l0-.07H12V0H22.64l.12.05a1.75,1.75,0,0,1,1.09,1c.06.12.1.24.15.36Z"/></svg>