<svg id="imagen" xmlns="http://www.w3.org/2000/svg" viewBox="0 0 24 24"><defs><style>.cls-1{fill:#2fac66;}</style></defs><path class="cls-1" d="M24,3.18V14.86s0,0,0,.06A2.49,2.49,0,0,1,21.36,17H6.64a3.44,3.44,0,0,1-.56,0A2.51,2.51,0,0,1,4,14.4Q4,9,4,3.67A2.51,2.51,0,0,1,6.63,1H21.44a2.5,2.5,0,0,1,2.44,1.73ZM22,10.6c0-.08,0-.11,0-.14Q22,7,22,3.57C22,3.2,21.8,3,21.41,3H6.6c-.43,0-.6.18-.6.6v9.09c0,.07,0,.13,0,.27.1-.12.15-.19.21-.25l2.48-2.49a1.75,1.75,0,0,1,1.72-.5,1.79,1.79,0,0,1,.89.54l1.12,1.14.24-.29,3.39-4.07a1.76,1.76,0,0,1,2.86,0l1,1.16Z"/><path class="cls-1" d="M0,16.31c.44-1.46.87-2.92,1.31-4.39L2.39,8.34a.29.29,0,0,1,.11-.18V8.4c0,2.1,0,4.19,0,6.28a3.78,3.78,0,0,0,3.91,3.85c4.67,0,9.34,0,14,0h.34c0,.09,0,.16-.06.23l-.84,2.65a2.24,2.24,0,0,1-2.79,1.53l-11.36-3-3.89-1A2.27,2.27,0,0,1,0,17L0,17Z"/><path class="cls-1" d="M9,8a2,2,0,1,1,2-2A2,2,0,0,1,9,8Z"/></svg>