<svg xmlns="http://www.w3.org/2000/svg" viewBox="0 0 170.15 83.88"><defs><style>.cls-1{fill:#fff;}.cls-2{fill:#c41430;}.cls-2,.cls-3,.cls-4{fill-rule:evenodd;}.cls-3{fill:#28315f;}.cls-4{fill:#ffd200;}</style></defs><g id="Capa_2" data-name="Capa 2"><g id="Capa_1-2" data-name="Capa 1"><path class="cls-1" d="M.39,12.17A5.33,5.33,0,0,0,4.45,16a6.52,6.52,0,0,0,5.77-1.41A5.65,5.65,0,0,0,11.6,8.85,5.2,5.2,0,0,0,9.89,6.53l.5-.26a2.29,2.29,0,0,0,1-2.58,5.14,5.14,0,0,0-2-2.61A6.11,6.11,0,0,0,6.5.23,5.59,5.59,0,0,0,1.26,2.82a5.24,5.24,0,0,0,.61,6l.24.25-.71.33A2.31,2.31,0,0,0,.39,12.17Zm6.69-2.08h0C7,10.09,7,10,7,10ZM7.2,11l0-.07v0Z"/><path class="cls-1" d="M13.42,13.43c2.16,3.3,7.65,3.63,10.52,1.1,1.93-1.7,1.94-4.27,1.94-6.63V2.75A2.32,2.32,0,0,0,23.59.46H21.83a2.32,2.32,0,0,0-2.29,2.29c0,2.19,0,4.38,0,6.57a2.62,2.62,0,0,1,0,.28v.14a1.6,1.6,0,0,1-.05.21h0l-.31,0-.21,0-.13,0h0a1.74,1.74,0,0,1-.05-.22c0-.1,0-.29,0-.38V2.75A2.32,2.32,0,0,0,16.43.46H14.7a2.31,2.31,0,0,0-2.29,2.29V7.18C12.41,9.28,12.21,11.59,13.42,13.43ZM18.82,10Zm.63,0Zm0,0h0l0,.07S19.43,10,19.45,10Zm.06-.07h0l0,0Zm1.35,1.24v0h0Zm-.05,0,0,0,.08-.06ZM21,11l0,.06-.06.06A.38.38,0,0,1,21,11ZM19.63,9.89l.07,0Zm0-.07-.11.08C19.61,9.85,19.66,9.81,19.67,9.82Zm-.12,0Zm0-.22a.32.32,0,0,1,0,.07ZM19.4,10a.44.44,0,0,1-.16,0Zm-.69-.05h0C18.6,9.85,18.44,9.68,18.71,9.91Z"/><path class="cls-1" d="M29.26,15.86h1.65a2.32,2.32,0,0,0,2.29-2.29V11a5.77,5.77,0,0,0,2.45-.71c2.42-1.42,2.93-4.79,1.73-7.15C35.82,0,32.15.46,29.26.46A2.32,2.32,0,0,0,27,2.75V13.57A2.32,2.32,0,0,0,29.26,15.86Z"/><path class="cls-1" d="M38.28,13.57a2.32,2.32,0,0,0,2.29,2.29h5.51a3.09,3.09,0,0,0,1.72-.32,3.19,3.19,0,0,0,1.26-3,3.15,3.15,0,0,0-1-2.26,2.92,2.92,0,0,0,1-2.41,3.86,3.86,0,0,0-.57-2.2A2.47,2.47,0,0,0,49,4.56a3.77,3.77,0,0,0-.49-3.11,2.61,2.61,0,0,0-2.23-1H40.57a2.32,2.32,0,0,0-2.29,2.29V13.57Zm8,.71h.08C46.67,14.28,46.69,14.4,46.27,14.28Z"/><path class="cls-1" d="M51.88,15.86h1.65a2.33,2.33,0,0,0,1.9-1,2.71,2.71,0,0,0,1.29.95,10.27,10.27,0,0,0,2.6.08A2.29,2.29,0,0,0,61,15.17a2.17,2.17,0,0,0,1.62.69h1.62a2.34,2.34,0,0,0,2.17-1.55.8.8,0,0,1,.08.16A3.62,3.62,0,0,0,67.75,16a2.52,2.52,0,0,0,3.43-1.14c.11-.17.2-.33.3-.5a2.35,2.35,0,0,0,2.16,1.52h1.64a2.32,2.32,0,0,0,2.2-2.9c-.6-2.89-1.21-5.78-1.89-8.66-.37-1.59-.71-4.4-2.93-4.3a2.94,2.94,0,0,0-2.5,2c-.4.81-.76,1.64-1.12,2.46-.05.11-.09.22-.14.32q-.47-1-1-2.1a7.56,7.56,0,0,0-1.14-2,2.34,2.34,0,0,0-3.3,0,3,3,0,0,0-.68,1.24c-.18.55-.3,1.12-.43,1.67-.43,1.85-.83,3.7-1.22,5.55-.18.81-.35,1.62-.52,2.43L59,9.41a4.57,4.57,0,0,0,1.17-2.16,5.5,5.5,0,0,0-2.15-6C56.27.18,53.89.46,51.88.46a2.32,2.32,0,0,0-2.29,2.29V13.57A2.32,2.32,0,0,0,51.88,15.86Zm15.26-3.2a1.05,1.05,0,0,1,.15-.24C67.25,12.5,67.18,12.58,67.14,12.66Zm3.49-.11.08.13Zm4-4.83,0-.08v-.1C74.63,7.41,74.66,7.37,74.67,7.72Zm-.13-4.17a1.3,1.3,0,0,1-.1.15l0-.05A.86.86,0,0,1,74.54,3.55ZM67.27,3Zm-4,.63,0,.08a1.3,1.3,0,0,1-.11-.19Z"/><path class="cls-1" d="M77.64,13.57a2.32,2.32,0,0,0,2.29,2.29h5.56a2.89,2.89,0,0,0,1.89-.5,3.25,3.25,0,0,0,1-2.9,3,3,0,0,0-.92-2.2A3.2,3.2,0,0,0,88.35,8,3.59,3.59,0,0,0,88,5.81a1.77,1.77,0,0,0-.16-.22,2.76,2.76,0,0,0,.45-.89,5,5,0,0,0,0-2.52A2.51,2.51,0,0,0,85.7.46H79.93a2.32,2.32,0,0,0-2.29,2.29V13.57Z"/><path class="cls-1" d="M91.24,15.86h1.65a2.33,2.33,0,0,0,1.9-1,2.71,2.71,0,0,0,1.29.95,10.27,10.27,0,0,0,2.6.08,2.32,2.32,0,0,0,2-1.13,2.27,2.27,0,0,0,0-2.31l-2.28-3a4.57,4.57,0,0,0,1.17-2.16,5.5,5.5,0,0,0-2.15-6C95.63.18,93.25.46,91.24.46A2.32,2.32,0,0,0,89,2.75V13.57A2.32,2.32,0,0,0,91.24,15.86Z"/><path class="cls-1" d="M109.74,16a7.47,7.47,0,0,0,2.58-.89,3.59,3.59,0,0,0,1.11-.91,2.25,2.25,0,0,0,.22.51,2.29,2.29,0,0,0,2,1.13h1.85a2.25,2.25,0,0,0,2-1.13l.74-1.66h1.4l.45,1.11a2.29,2.29,0,0,0,.1.23,2.32,2.32,0,0,0,1.28,1.29,2,2,0,0,0,1.08.16h1.6a2.32,2.32,0,0,0,2-1.13,3.52,3.52,0,0,0,.16-.35,2.28,2.28,0,0,0,2.13,1.48c3.42,0,7.41.43,9.79-2.58A8.57,8.57,0,0,0,141.29,5a7,7,0,0,0-2.92-3.51,8,8,0,0,0-3.57-1c-1.47-.12-3-.07-4.43-.07a2.32,2.32,0,0,0-2.29,2.29v9.68h0c-1.52-3.37-3-6.75-4.63-10.08a6.14,6.14,0,0,0-1-1.64,2.35,2.35,0,0,0-3.66.55,6.36,6.36,0,0,0-.3.58c-.94,1.91-1.82,3.86-2.7,5.79l-1.89,4.14v-.9a2.29,2.29,0,0,0-1.41-2.09,2.33,2.33,0,0,0-2.5.47l-.11.09-.08.05-.5.29-.08.06-.08,0c-.2.06-.4.12-.6.16l-.09,0h-.58l-.19,0-.16,0-.14,0-.2-.14h0a.21.21,0,0,0,0-.06,1.43,1.43,0,0,0-.18-.15c0-.08-.09-.16-.12-.22s-.19-.54-.13-.23,0-.2-.06-.27l0-.14c0-.16,0-.32,0-.48s0-.23,0-.35.05-.14.06-.19.06-.21.1-.31l.13-.2,0,0h0l.3-.29.12-.08.12-.07.4-.12.06,0h.69l.08,0,.57.16h0l.48.27L110,7h0l.06,0a2.16,2.16,0,0,0,1.56.63l.25,0A2,2,0,0,0,113.28,7a2.43,2.43,0,0,0,.34-.48A2.53,2.53,0,0,0,114,5.38c0-.55.09-1.11.09-1.67,0-1.91-2.22-2.92-3.84-3.28a8.24,8.24,0,0,0-8.63,3.23,8.21,8.21,0,0,0-.2,8.75A8.22,8.22,0,0,0,109.74,16Zm25.64-8.7,0-.1S135.37,7.31,135.38,7.32Zm-.21-.4-.06-.07S135.14,6.88,135.17,6.92Zm-.48-.26.05,0,.19.05a.16.16,0,0,0,.09,0l.12.13.05,0,.09.16,0,.08a1.82,1.82,0,0,1,.07.25,3.59,3.59,0,0,1,.08.35l0-.24a2.74,2.74,0,0,1,0,.7s0,.23,0,.35-.09.4-.09.44a.2.2,0,0,0,0,.07l0,0-.09.15-.09.14-.06.07-.12.07-.11,0-.11,0h-.3v-3ZM135,9.58l-.09.07Zm.22-.22.06-.08Zm-12.53-5.6a.91.91,0,0,0,.07-.14C122.86,3.39,123,3.48,122.67,3.76ZM107.85,9.93h0Zm-.2,0a.4.4,0,0,1-.2-.08Zm-1-2.42a.61.61,0,0,1,.11-.23Z"/><path class="cls-1" d="M151.79,16a8.05,8.05,0,0,0,6.42-7.56,1.85,1.85,0,0,0,0-.24V8A8.1,8.1,0,0,0,152.78.65,8.18,8.18,0,0,0,144,3a8,8,0,0,0-.8,9.39A8.31,8.31,0,0,0,151.79,16Zm0-8a2.89,2.89,0,0,1,0,.48,1.15,1.15,0,0,1,0,.14c-.07.18-.2.55,0,.18-.06.14-.2.52-.34.6l.09-.11-.18.19-.21.2h0a3,3,0,0,1-.26.17l-.16.06-.37.09c.38-.1.06,0-.17,0h-.22l-.14,0c-.12,0-.64-.26-.16,0a2.25,2.25,0,0,1-.6-.35l.19.14L149,9.42c-.05,0-.09-.1-.14-.15a3.79,3.79,0,0,0-.2-.34,2.58,2.58,0,0,0-.13-.46v0c0-.09,0-.18,0-.27s0-.25,0-.33a1.74,1.74,0,0,0,.11-.41l.16-.29.05-.07.14-.15.15-.18a4.29,4.29,0,0,1,.51-.28c-.45.25.05,0,.16,0l.15,0h.41c.15,0,.6.22.48.14l.28.17.21.2.12.13.11.12a2,2,0,0,1,.12.27,3.58,3.58,0,0,1,.11.35A.93.93,0,0,1,151.8,7.94Zm-1.14,1.94.15-.07ZM151.41,7a.41.41,0,0,1,.14.17Z"/><path class="cls-1" d="M158.42,12.17A5.3,5.3,0,0,0,162.47,16a6.5,6.5,0,0,0,5.77-1.41,5.65,5.65,0,0,0,1.38-5.72,5.12,5.12,0,0,0-1.71-2.32l.5-.26a2.27,2.27,0,0,0,1.05-2.58,5.08,5.08,0,0,0-2-2.61,6.11,6.11,0,0,0-2.91-.85,5.59,5.59,0,0,0-5.25,2.59,5.22,5.22,0,0,0,.62,6,1.88,1.88,0,0,0,.24.25l-.71.33A2.29,2.29,0,0,0,158.42,12.17Zm6.68-2.08h0c-.08,0-.11-.06-.09-.06Zm.12.93,0-.07v0Z"/><path class="cls-1" d="M169.41,38.78a10.67,10.67,0,0,0-4.18-5.66,12.54,12.54,0,0,0-7.13-1.82A17.4,17.4,0,0,0,152,32.5a2.33,2.33,0,0,0-2-1.2H136.19a2.32,2.32,0,0,0-2.29,2.29v.66c-2.24-2.59-6.29-2.95-9.47-2.95-3.62,0-7.25,0-10.87,0-1.27,0-2.66,0-4.07,0l4.38-7.1L116,20.69a2.06,2.06,0,0,0,.35-1.21l0-.27a2.2,2.2,0,0,0-1.1-1.71.2.2,0,0,1-.08,0,2.27,2.27,0,0,0-1.08-.27H90.19c-1.3,0-2.46-.13-3.33,1.17-1.67,2.5-3.17,5.14-4.74,7.7s-3,4.8-4.48,7.22l-2-3.18L69.6,20.24c-.39-.63-.76-1.28-1.17-1.9-.91-1.35-2.23-1.15-3.61-1.15H41.26A2,2,0,0,0,40,17.5a2.92,2.92,0,0,0-.28.21,2.18,2.18,0,0,0-.85,1.77h0a2.1,2.1,0,0,0,.31,1.15q3,4.89,6,9.79l.54.88H39.45a2.31,2.31,0,0,0-2,1.16,2.3,2.3,0,0,0-2-1.16H21.3a2.15,2.15,0,0,0-.45,0V28.75c0-1.88,0-3.76,0-5.63V23a2.32,2.32,0,0,0-2.29-2.29H2.31A2.32,2.32,0,0,0,0,23V63.48c0,1.86,0,3.72,0,5.58v.13a2.32,2.32,0,0,0,2.29,2.29H18.56a2.32,2.32,0,0,0,2.29-2.29V66.4a5.5,5.5,0,0,0,.34.5,10.07,10.07,0,0,0,3.55,3.16A13.58,13.58,0,0,0,30,71.44a18.31,18.31,0,0,0,7.9-1.24,2.34,2.34,0,0,0,2,1.28H44l-2.59,4.83-2.21,4.12a2.32,2.32,0,0,0,2,3.45H66.44a2.26,2.26,0,0,0,2-1.14l2.84-5.28,6.2-11.59.2-.37.85,1.59,5,9.27,3.42,6.38a2.26,2.26,0,0,0,2,1.14H114.1a2.32,2.32,0,0,0,2-3.45l-4.79-8.93h11.44a31.89,31.89,0,0,0,6.25-.41A9.34,9.34,0,0,0,133.52,69l.38-.38v.6a2.32,2.32,0,0,0,2.29,2.29h14.19a2.32,2.32,0,0,0,2.29-2.29V57.26c0-2.63,0-5.25,0-7.88a2.31,2.31,0,0,0,1.69.76h13.49a2.33,2.33,0,0,0,2.29-2.29C170.13,44.84,170.36,41.68,169.41,38.78Zm-17,5.27h0ZM152,43.8h0ZM117.86,60.45ZM56,47.83l.37.6-.37.69ZM37.93,59.19l0-.12C37.92,59.13,37.94,59.18,37.93,59.19ZM152,43.74Zm.05.1v0a1,1,0,0,0,0,.17S152,44,152,43.84Z"/><path class="cls-2" d="M2.56,11.4,4,10.76a1.93,1.93,0,0,0,.73,1.1,2.32,2.32,0,0,0,1.36.38A1.75,1.75,0,0,0,7.3,11.8a1.51,1.51,0,0,0,.46-1.16c0-.64-.52-1.21-1.58-1.7l-.34-.17A7.56,7.56,0,0,1,3.46,7.2a2.58,2.58,0,0,1-.6-1.73,2.75,2.75,0,0,1,.9-2.14,3.33,3.33,0,0,1,2.35-.82,4,4,0,0,1,2,.46A2.37,2.37,0,0,1,9.23,4.29L7.86,5a2.32,2.32,0,0,0-.72-.74A1.62,1.62,0,0,0,6.25,4a1.66,1.66,0,0,0-1.12.37,1.26,1.26,0,0,0-.42,1c0,.65.61,1.26,1.83,1.82l.22.1A6.69,6.69,0,0,1,9,8.75a2.63,2.63,0,0,1,.6,1.76A3.2,3.2,0,0,1,8.6,13,3.67,3.67,0,0,1,6,13.86a3.76,3.76,0,0,1-2.27-.64A3,3,0,0,1,2.56,11.4ZM14.7,2.75h1.73V9.32a3.15,3.15,0,0,0,.68,2.2,2.62,2.62,0,0,0,2,.73,2.6,2.6,0,0,0,2-.73,3.15,3.15,0,0,0,.68-2.2V2.75h1.76V9.48a4.42,4.42,0,0,1-1.11,3.29,4.59,4.59,0,0,1-3.34,1.09,4.55,4.55,0,0,1-3.34-1.09,4.4,4.4,0,0,1-1.1-3.29V2.75ZM31,7.27h.45a4.09,4.09,0,0,0,2-.31,1.26,1.26,0,0,0,.48-1.13,1.37,1.37,0,0,0-.52-1.22,3.73,3.73,0,0,0-1.92-.35H31v3Zm-.11,1.44v4.86H29.26V2.75h2.66a8.32,8.32,0,0,1,1.75.13,2.75,2.75,0,0,1,1,.42,2.55,2.55,0,0,1,.8,1,3.45,3.45,0,0,1,.29,1.41,3.53,3.53,0,0,1-.29,1.42,2.49,2.49,0,0,1-.8,1,2.94,2.94,0,0,1-1,.42,9.25,9.25,0,0,1-1.75.12h-1Zm9.66,4.86V2.75h6c.31,0,.33,1.49,0,1.49H42.33V7h4.29c.1,0,.24,1.54,0,1.54H42.33V12h4.29c.22,0,.22,1.57,0,1.57ZM53.64,7.36H54A3.6,3.6,0,0,0,55.81,7a1.32,1.32,0,0,0,.46-1.16,1.48,1.48,0,0,0-.49-1.26A3.29,3.29,0,0,0,54,4.26h-.32v3.1Zm-.11,1.37v4.84H51.88V2.75h2.45A8,8,0,0,1,56,2.89a2.53,2.53,0,0,1,1,.47,2.72,2.72,0,0,1,.78,1,3.37,3.37,0,0,1,.27,1.36,3.05,3.05,0,0,1-.63,2,2.78,2.78,0,0,1-1.86.88l3.73,4.92h-2l-3.6-4.84Zm18.91-.5c0-.09,0-.32-.09-.7s-.08-.57-.11-.78a5.37,5.37,0,0,1-.19.74,6.51,6.51,0,0,1-.3.75S69.32,14,68.92,14s-2.84-5.89-2.84-5.89a5.89,5.89,0,0,1-.3-.7,6.66,6.66,0,0,1-.23-.67,5.92,5.92,0,0,1,0,.71q-.06.38-.15.78l-1.16,5.33H62.57S64.9,2.29,65.13,2.29s3.19,6.83,3.19,6.83.13.29.23.54l.37.93a11.33,11.33,0,0,1,.48-1.18l.14-.3s2.84-6.82,3.12-6.82,2.62,11.28,2.62,11.28H73.64l-1.2-5.34Zm7.49,5.34V2.75h6c.18,0,.16,1.49,0,1.49H81.69V7H86c.18,0,.1,1.54,0,1.54H81.69V12H86a3.47,3.47,0,0,1,0,1.57ZM93,7.36h.32A3.6,3.6,0,0,0,95.17,7a1.32,1.32,0,0,0,.46-1.16,1.48,1.48,0,0,0-.49-1.26,3.29,3.29,0,0,0-1.82-.36H93v3.1Zm-.11,1.37v4.84H91.24V2.75h2.45a8,8,0,0,1,1.68.14,2.53,2.53,0,0,1,1,.47,2.6,2.6,0,0,1,.77,1,3.21,3.21,0,0,1,.28,1.36,3.05,3.05,0,0,1-.63,2A2.78,2.78,0,0,1,95,8.65l3.73,4.92h-2l-3.6-4.84Zm18.77-3.35a5.36,5.36,0,0,0-1.57-1,4.93,4.93,0,0,0-1.75-.32,3.85,3.85,0,0,0-2.89,1.14,4.05,4.05,0,0,0-1.12,2.95,4,4,0,0,0,1.09,2.89,3.6,3.6,0,0,0,2.73,1.14,5.12,5.12,0,0,0,1.83-.34,5.82,5.82,0,0,0,1.67-1v2a5.2,5.2,0,0,1-1.55.76,6.14,6.14,0,0,1-1.81.25,6.39,6.39,0,0,1-2.3-.41,5.44,5.44,0,0,1-3.07-3,6,6,0,0,1-.42-2.24A5.9,5.9,0,0,1,102.92,6a5.48,5.48,0,0,1,1.24-1.84A5.3,5.3,0,0,1,106,2.9a6.12,6.12,0,0,1,2.25-.41,5.78,5.78,0,0,1,1.82.28,6,6,0,0,1,1.68.84l-.1,1.77Zm7.72,3.94h3l-1.11-2.47a4.75,4.75,0,0,1-.2-.54c-.07-.21-.14-.43-.21-.69-.06.24-.12.46-.19.67s-.13.39-.2.56l-1.11,2.47Zm4.87,4.25s-1.12-2.79-1.23-2.79h-4.29l-1.26,2.79h-1.85s5.09-11.25,5.25-11.25,5.23,11.25,5.23,11.25ZM132.13,12h1.48a7.62,7.62,0,0,0,1.83-.16,2.62,2.62,0,0,0,1.06-.55,3.19,3.19,0,0,0,.92-1.3,4.85,4.85,0,0,0,.31-1.82,4.8,4.8,0,0,0-.31-1.81A3.22,3.22,0,0,0,136.5,5a2.66,2.66,0,0,0-1.09-.54,8.79,8.79,0,0,0-2-.17h-1.27V12Zm-1.76,1.59V2.75h2.37A15.93,15.93,0,0,1,136,3a4.62,4.62,0,0,1,1.66.78,4.55,4.55,0,0,1,1.42,1.84,6.33,6.33,0,0,1,.49,2.57,6.2,6.2,0,0,1-.49,2.55,4.69,4.69,0,0,1-1.42,1.84,4.6,4.6,0,0,1-1.62.78,12.67,12.67,0,0,1-2.82.23h-2.85ZM154.1,8.18a4.16,4.16,0,0,0-.3-1.56,4.08,4.08,0,0,0-.86-1.31,3.86,3.86,0,0,0-1.27-.88,3.88,3.88,0,0,0-3,0,3.72,3.72,0,0,0-1.28.88,4,4,0,0,0-.86,1.31,4.08,4.08,0,0,0-.29,1.56,4.08,4.08,0,0,0,.29,1.56,4.15,4.15,0,0,0,.86,1.3,3.87,3.87,0,0,0,4.31.88,3.91,3.91,0,0,0,1.28-.88,4.06,4.06,0,0,0,1.16-2.86Zm1.84,0a5.51,5.51,0,0,1-.44,2.18,5.59,5.59,0,0,1-1.26,1.84,6.24,6.24,0,0,1-1.88,1.23,5.92,5.92,0,0,1-2.21.43,6,6,0,0,1-2.23-.43,5.74,5.74,0,0,1-1.87-1.23,5.36,5.36,0,0,1-1.26-1.83,5.52,5.52,0,0,1-.43-2.19A5.59,5.59,0,0,1,144.79,6a5.5,5.5,0,0,1,1.26-1.84,5.87,5.87,0,0,1,1.87-1.22,6.1,6.1,0,0,1,4.45,0A5.7,5.7,0,0,1,155.5,6a5.59,5.59,0,0,1,.44,2.18Zm4.64,3.22,1.4-.64a1.94,1.94,0,0,0,.74,1.1,2.3,2.3,0,0,0,1.36.38,1.72,1.72,0,0,0,1.24-.44,1.52,1.52,0,0,0,.47-1.16c0-.64-.53-1.21-1.59-1.7l-.34-.17a7.68,7.68,0,0,1-2.38-1.57,2.58,2.58,0,0,1-.6-1.73,2.75,2.75,0,0,1,.9-2.14,3.36,3.36,0,0,1,2.36-.82,4,4,0,0,1,2,.46,2.42,2.42,0,0,1,1.12,1.32L165.88,5a2.3,2.3,0,0,0-.71-.74,1.85,1.85,0,0,0-2,.13,1.26,1.26,0,0,0-.42,1c0,.65.61,1.26,1.84,1.82l.22.1A6.62,6.62,0,0,1,167,8.75a2.63,2.63,0,0,1,.6,1.76,3.16,3.16,0,0,1-1,2.44,3.65,3.65,0,0,1-2.62.91,3.73,3.73,0,0,1-2.26-.64,3,3,0,0,1-1.16-1.82Z"/><path class="cls-1" d="M72.66,2.29c.27,0,2.62,11.28,2.62,11.28H73.64l-1.2-5.34c0-.09,0-.32-.09-.7s-.08-.57-.11-.78a5.37,5.37,0,0,1-.19.74,6.51,6.51,0,0,1-.3.75S69.32,14,68.92,14s-2.84-5.89-2.84-5.89a5.89,5.89,0,0,1-.3-.7,6.66,6.66,0,0,1-.23-.67,4.44,4.44,0,0,1-.06.71c0,.25-.08.51-.14.78l-1.16,5.33H62.57S64.9,2.29,65.13,2.29s3.19,6.83,3.19,6.83.13.29.23.54l.37.93a11.33,11.33,0,0,1,.48-1.18l.14-.3s2.84-6.82,3.12-6.82m48.21,0c.15,0,5.23,11.25,5.23,11.25h-1.85s-1.12-2.79-1.23-2.79h-4.29l-1.26,2.79h-1.85s5.09-11.25,5.25-11.25m-1.49,7h3l-1.11-2.47a4.75,4.75,0,0,1-.2-.54c-.07-.21-.14-.43-.21-.69-.06.24-.12.46-.19.67s-.13.39-.2.56l-1.11,2.47M108.26,2.49a5.78,5.78,0,0,1,1.82.28,6,6,0,0,1,1.68.84l-.1,1.77a5.36,5.36,0,0,0-1.57-1,4.93,4.93,0,0,0-1.75-.32,3.85,3.85,0,0,0-2.89,1.14,4.05,4.05,0,0,0-1.12,2.95,4,4,0,0,0,1.09,2.89,3.6,3.6,0,0,0,2.73,1.14,5.12,5.12,0,0,0,1.83-.34,5.82,5.82,0,0,0,1.67-1v2a5.2,5.2,0,0,1-1.55.76,6.14,6.14,0,0,1-1.81.25,6.39,6.39,0,0,1-2.3-.41,5.44,5.44,0,0,1-3.07-3,6,6,0,0,1-.42-2.24A5.9,5.9,0,0,1,102.92,6a5.48,5.48,0,0,1,1.24-1.84A5.3,5.3,0,0,1,106,2.9a6.12,6.12,0,0,1,2.25-.41m55.88,0a4,4,0,0,1,2,.46,2.42,2.42,0,0,1,1.12,1.32L165.88,5a2.3,2.3,0,0,0-.71-.74,1.85,1.85,0,0,0-2,.13,1.26,1.26,0,0,0-.42,1c0,.65.61,1.26,1.84,1.82l.22.1A6.62,6.62,0,0,1,167,8.75a2.63,2.63,0,0,1,.6,1.76,3.16,3.16,0,0,1-1,2.44,3.65,3.65,0,0,1-2.62.91,3.73,3.73,0,0,1-2.26-.64,3,3,0,0,1-1.16-1.82l1.4-.64a1.94,1.94,0,0,0,.74,1.1,2.3,2.3,0,0,0,1.36.38,1.72,1.72,0,0,0,1.24-.44,1.52,1.52,0,0,0,.47-1.16c0-.64-.53-1.21-1.59-1.7l-.34-.17a7.68,7.68,0,0,1-2.38-1.57,2.58,2.58,0,0,1-.6-1.73,2.75,2.75,0,0,1,.9-2.14,3.36,3.36,0,0,1,2.36-.82m-14,0a5.78,5.78,0,0,1,4.09,1.64A5.85,5.85,0,0,1,155.5,6a5.59,5.59,0,0,1,.44,2.18,5.51,5.51,0,0,1-.44,2.18,5.59,5.59,0,0,1-1.26,1.84,6.24,6.24,0,0,1-1.88,1.23,5.92,5.92,0,0,1-2.21.43,6,6,0,0,1-2.23-.43,5.74,5.74,0,0,1-1.87-1.23,5.36,5.36,0,0,1-1.26-1.83,5.52,5.52,0,0,1-.43-2.19A5.59,5.59,0,0,1,144.79,6a5.5,5.5,0,0,1,1.26-1.84,5.87,5.87,0,0,1,1.87-1.22,6,6,0,0,1,2.23-.42m0,9.72a3.71,3.71,0,0,0,1.51-.31,4.05,4.05,0,0,0,2.14-2.19,4.07,4.07,0,0,0,.3-1.55,4.16,4.16,0,0,0-.3-1.56,3.92,3.92,0,0,0-.86-1.31,3.86,3.86,0,0,0-1.27-.88,3.88,3.88,0,0,0-3,0,3.72,3.72,0,0,0-1.28.88,4,4,0,0,0-.86,1.31,4.08,4.08,0,0,0-.29,1.56,4.08,4.08,0,0,0,.29,1.56,4.15,4.15,0,0,0,.86,1.3,3.9,3.9,0,0,0,2.8,1.19M6.11,2.51a4,4,0,0,1,2,.46A2.37,2.37,0,0,1,9.23,4.29L7.86,5a2.32,2.32,0,0,0-.72-.74A1.62,1.62,0,0,0,6.25,4a1.66,1.66,0,0,0-1.12.37,1.26,1.26,0,0,0-.42,1c0,.65.61,1.26,1.83,1.82l.22.1A6.69,6.69,0,0,1,9,8.75a2.63,2.63,0,0,1,.6,1.76A3.2,3.2,0,0,1,8.6,13,3.67,3.67,0,0,1,6,13.86a3.76,3.76,0,0,1-2.27-.64A3,3,0,0,1,2.56,11.4L4,10.76a1.93,1.93,0,0,0,.73,1.1,2.32,2.32,0,0,0,1.36.38A1.75,1.75,0,0,0,7.3,11.8a1.51,1.51,0,0,0,.46-1.16c0-.64-.52-1.21-1.58-1.7l-.34-.17A7.56,7.56,0,0,1,3.46,7.2a2.58,2.58,0,0,1-.6-1.73,2.75,2.75,0,0,1,.9-2.14,3.33,3.33,0,0,1,2.35-.82m126.63.24A15.93,15.93,0,0,1,136,3a4.62,4.62,0,0,1,1.66.78,4.55,4.55,0,0,1,1.42,1.84,6.33,6.33,0,0,1,.49,2.57,6.2,6.2,0,0,1-.49,2.55,4.69,4.69,0,0,1-1.42,1.84,4.6,4.6,0,0,1-1.62.78,12.67,12.67,0,0,1-2.82.23h-2.85V2.75h2.37M132.13,12h1.48a7.62,7.62,0,0,0,1.83-.16,2.62,2.62,0,0,0,1.06-.55,3.19,3.19,0,0,0,.92-1.3,4.85,4.85,0,0,0,.31-1.82,4.8,4.8,0,0,0-.31-1.81A3.22,3.22,0,0,0,136.5,5a2.66,2.66,0,0,0-1.09-.54,8.79,8.79,0,0,0-2-.17h-1.27V12M93.69,2.75a8,8,0,0,1,1.68.14,2.53,2.53,0,0,1,1,.47,2.6,2.6,0,0,1,.77,1,3.18,3.18,0,0,1,.28,1.36,3.05,3.05,0,0,1-.63,2A2.78,2.78,0,0,1,95,8.65l3.73,4.92h-2l-3.6-4.84h-.2v4.84H91.24V2.75h2.45M93,7.36h.32A3.6,3.6,0,0,0,95.17,7a1.32,1.32,0,0,0,.46-1.16,1.48,1.48,0,0,0-.49-1.26,3.29,3.29,0,0,0-1.82-.36H93v3.1M86,2.75c.18,0,.16,1.49,0,1.49H81.69V7H86c.18,0,.1,1.54,0,1.54H81.69V12H86a3.47,3.47,0,0,1,0,1.57h-6V2.75h6m-31.64,0A8,8,0,0,1,56,2.89a2.53,2.53,0,0,1,1,.47,2.72,2.72,0,0,1,.78,1,3.34,3.34,0,0,1,.27,1.36,3.05,3.05,0,0,1-.63,2,2.78,2.78,0,0,1-1.86.88l3.73,4.92h-2l-3.6-4.84h-.2v4.84H51.88V2.75h2.45m-.69,4.61H54A3.6,3.6,0,0,0,55.81,7a1.32,1.32,0,0,0,.46-1.16,1.48,1.48,0,0,0-.49-1.26A3.29,3.29,0,0,0,54,4.26h-.32v3.1m-7-4.61c.31,0,.33,1.49,0,1.49H42.33V7h4.29c.1,0,.24,1.54,0,1.54H42.33V12h4.29c.22,0,.22,1.57,0,1.57h-6V2.75h6m-14.7,0a8.32,8.32,0,0,1,1.75.13,2.75,2.75,0,0,1,1,.42,2.55,2.55,0,0,1,.8,1,3.45,3.45,0,0,1,.29,1.41,3.53,3.53,0,0,1-.29,1.42,2.49,2.49,0,0,1-.8,1,2.94,2.94,0,0,1-1,.42,9.25,9.25,0,0,1-1.75.12h-1v4.86H29.26V2.75h2.66M31,7.27h.45a4.09,4.09,0,0,0,2-.31,1.26,1.26,0,0,0,.48-1.13,1.37,1.37,0,0,0-.52-1.22,3.73,3.73,0,0,0-1.92-.35H31v3M23.59,2.75V9.48a4.42,4.42,0,0,1-1.11,3.29,4.59,4.59,0,0,1-3.34,1.09,4.55,4.55,0,0,1-3.34-1.09,4.4,4.4,0,0,1-1.1-3.29V2.75h1.73V9.32a3.15,3.15,0,0,0,.68,2.2,2.62,2.62,0,0,0,2,.73,2.6,2.6,0,0,0,2-.73,3.15,3.15,0,0,0,.68-2.2V2.75h1.76M72.66,2c-.22,0-.34,0-1.9,3.56C70,7.29,69.31,9,69.3,9l-.09.21,0,.07-.26.59c0-.12-.08-.23-.12-.32-.11-.26-.18-.44-.24-.56S67.8,7.29,67,5.6C65.44,2,65.35,2,65.13,2s-.29.21-.42.67c-.08.29-.19.73-.32,1.28-.23.94-.52,2.25-.87,3.89-.61,2.79-1.19,5.61-1.2,5.64l-.06.3h2.13l0-.2L65.6,8.3l.09-.42c0,.11.1.23.16.35s.64,1.54,1.27,2.94c1.38,3.09,1.58,3.09,1.8,3.09s.41,0,1.8-3C71.37,9.8,72,8.36,72,8.34A2.43,2.43,0,0,0,72.14,8a2,2,0,0,0,.06.32l1.19,5.34,0,.19h2.15l-.07-.3s-.59-2.85-1.2-5.64C73,2,72.93,2,72.66,2Zm48.21,0c-.21,0-.22,0-1.12,1.9-.44.93-1,2.24-1.8,3.87-1.27,2.78-2.55,5.6-2.56,5.63l-.16.35h2.41l.06-.14L118.89,11h4c.18.33.68,1.53,1.12,2.62l.06.16h2.42l-.16-.35s-1.28-2.85-2.56-5.63C123,6.21,122.42,4.9,122,4c-.9-1.9-.91-1.9-1.11-1.9Zm-1.1,7,1-2.11h0c0-.15.11-.29.16-.43l.16.44,1,2.12ZM108.26,2.24a6.25,6.25,0,0,0-2.35.43A5.56,5.56,0,0,0,104,3.93a5.7,5.7,0,0,0-1.29,1.92,6.28,6.28,0,0,0,0,4.67A5.75,5.75,0,0,0,104,12.44a5.83,5.83,0,0,0,1.94,1.25,7,7,0,0,0,4.28.16,5.44,5.44,0,0,0,1.62-.8l.1-.07V10.3l-.42.37a5.71,5.71,0,0,1-1.59,1,4.84,4.84,0,0,1-1.74.32,3.32,3.32,0,0,1-2.55-1.06,3.79,3.79,0,0,1-1-2.71,3.8,3.8,0,0,1,1-2.77,3.57,3.57,0,0,1,2.71-1.07,4.6,4.6,0,0,1,1.65.31,5.12,5.12,0,0,1,1.51.9l.39.34,0-.51L112,3.62V3.48l-.12-.08a6.59,6.59,0,0,0-1.74-.87,6,6,0,0,0-1.9-.29Zm55.88,0a3.6,3.6,0,0,0-2.53.89,3,3,0,0,0-1,2.33,2.83,2.83,0,0,0,.66,1.89A7.64,7.64,0,0,0,163.75,9h0l.29.14h0c1,.46,1.44.95,1.44,1.48a1.27,1.27,0,0,1-.38,1,1.52,1.52,0,0,1-1.07.36,2.07,2.07,0,0,1-1.22-.33,1.73,1.73,0,0,1-.63-1l-.08-.29-.27.12-1.41.65-.18.09,0,.2a3.24,3.24,0,0,0,1.26,2,4.06,4.06,0,0,0,2.41.68,4,4,0,0,0,2.8-1,3.46,3.46,0,0,0,1-2.63,2.94,2.94,0,0,0-.65-1.93,6.72,6.72,0,0,0-2.3-1.51l-.21-.1c-1.13-.51-1.69-1-1.69-1.59a1,1,0,0,1,.33-.8,1.42,1.42,0,0,1,1-.3,1.32,1.32,0,0,1,.75.2,1.93,1.93,0,0,1,.64.66l.12.2.21-.11,1.37-.71.2-.1-.07-.21a2.65,2.65,0,0,0-1.23-1.46,4.25,4.25,0,0,0-2.13-.5Zm-14,0a6.25,6.25,0,0,0-2.32.44,6,6,0,0,0-3.28,3.21,6.15,6.15,0,0,0,0,4.57,5.75,5.75,0,0,0,1.32,1.91,6,6,0,0,0,2,1.28,6.07,6.07,0,0,0,2.32.45,6.16,6.16,0,0,0,4.27-1.73,5.89,5.89,0,0,0,1.32-6.47A6.19,6.19,0,0,0,154.42,4a6,6,0,0,0-2-1.28,6.16,6.16,0,0,0-2.31-.44Zm0,9.72a3.56,3.56,0,0,1-1.42-.28,3.8,3.8,0,0,1-2.28-3.51,3.84,3.84,0,0,1,.28-1.47,3.54,3.54,0,0,1,.8-1.22,3.57,3.57,0,0,1,2.62-1.11,3.62,3.62,0,0,1,2.6,1.1,3.65,3.65,0,0,1,.81,1.24,3.82,3.82,0,0,1,0,2.92,3.69,3.69,0,0,1-.8,1.22,3.75,3.75,0,0,1-1.2.83,3.55,3.55,0,0,1-1.41.28ZM6.11,2.25a3.59,3.59,0,0,0-2.52.89,3,3,0,0,0-1,2.33,2.87,2.87,0,0,0,.65,1.89A7.71,7.71,0,0,0,5.73,9h0L6,9.15h0c1,.46,1.44.95,1.44,1.48a1.32,1.32,0,0,1-.38,1A1.53,1.53,0,0,1,6.05,12a2.06,2.06,0,0,1-1.21-.33,1.68,1.68,0,0,1-.63-1l-.08-.29-.28.12-1.4.65-.19.09.05.2a3.23,3.23,0,0,0,1.25,2A4.12,4.12,0,0,0,6,14.11a4,4,0,0,0,2.79-1,3.43,3.43,0,0,0,1.05-2.63,2.9,2.9,0,0,0-.66-1.93A6.76,6.76,0,0,0,6.87,7.07L6.65,7C5.53,6.46,5,5.92,5,5.38a1,1,0,0,1,.34-.8,1.39,1.39,0,0,1,1-.3,1.35,1.35,0,0,1,.76.2,1.83,1.83,0,0,1,.63.66l.13.2L8,5.23l1.37-.71.2-.1-.08-.21A2.63,2.63,0,0,0,8.25,2.75a4.29,4.29,0,0,0-2.14-.5Zm126.63.25h-2.62V13.82h3.1a12.61,12.61,0,0,0,2.88-.24,4.68,4.68,0,0,0,1.71-.82,4.89,4.89,0,0,0,1.51-1.94,6.7,6.7,0,0,0,.5-2.65,6.83,6.83,0,0,0-.5-2.67,4.83,4.83,0,0,0-1.51-1.94,4.66,4.66,0,0,0-1.74-.82,16,16,0,0,0-3.33-.24Zm-.35,2.08h1a8.89,8.89,0,0,1,1.94.15,2.55,2.55,0,0,1,1,.5,3.06,3.06,0,0,1,.85,1.2,4.77,4.77,0,0,1,.29,1.72,4.86,4.86,0,0,1-.29,1.73,3.13,3.13,0,0,1-.85,1.2,2.43,2.43,0,0,1-1,.49,7,7,0,0,1-1.77.16h-1.22V4.58ZM93.69,2.5H91V13.82h2.15V9.23l3.35,4.49.07.1h2.63l-.31-.4L95.41,8.83A2.83,2.83,0,0,0,97,7.93a3.29,3.29,0,0,0,.69-2.2,3.66,3.66,0,0,0-.29-1.46,2.8,2.8,0,0,0-.86-1.11,3,3,0,0,0-1.11-.52,8.67,8.67,0,0,0-1.74-.14Zm-.44,2h.07A2.84,2.84,0,0,1,95,4.83a1.22,1.22,0,0,1,.39,1,1.12,1.12,0,0,1-.35,1,3.21,3.21,0,0,1-1.71.28h-.07V4.51ZM86,2.5H79.68V13.82H86c.27,0,.35-.22.35-1.06a4.22,4.22,0,0,0,0-.55c0-.15,0-.47-.32-.47h-4v-3h4c.17,0,.36,0,.36-1.18a3,3,0,0,0,0-.47c0-.26-.15-.4-.33-.4h-4V4.5h4c.28,0,.38-.28.38-1a4.06,4.06,0,0,0,0-.54c0-.1-.07-.43-.35-.43Zm-31.64,0h-2.7V13.82h2.15V9.23l3.35,4.49.07.1h2.63l-.31-.4L56.05,8.83a2.83,2.83,0,0,0,1.59-.9,3.29,3.29,0,0,0,.69-2.2A3.66,3.66,0,0,0,58,4.27a2.73,2.73,0,0,0-.86-1.11,3,3,0,0,0-1.11-.52,8.67,8.67,0,0,0-1.74-.14Zm-.44,2H54a2.84,2.84,0,0,1,1.67.32,1.22,1.22,0,0,1,.39,1,1.11,1.11,0,0,1-.35,1A3.18,3.18,0,0,1,54,7.11h-.07V4.51Zm-7.27-2h-6.3V13.82h6.3c.29,0,.42-.32.42-1a3.33,3.33,0,0,0,0-.59c-.06-.3-.18-.45-.37-.45h-4v-3h4c.1,0,.28,0,.35-.36a2.68,2.68,0,0,0,0-.45c0-1.24-.29-1.24-.39-1.24h-4V4.5h4c.11,0,.32,0,.42-.41a1.89,1.89,0,0,0,.07-.57c0-.31,0-1-.49-1Zm-14.7,0H29V13.82h2.15V9h.76a9.67,9.67,0,0,0,1.8-.13,2.89,2.89,0,0,0,1.07-.47,2.76,2.76,0,0,0,.88-1.12A3.66,3.66,0,0,0,36,5.73a3.55,3.55,0,0,0-.31-1.51,2.76,2.76,0,0,0-.88-1.12,2.89,2.89,0,0,0-1.07-.47,8.74,8.74,0,0,0-1.8-.13Zm-.64,2h.19a3.37,3.37,0,0,1,1.78.31,1.12,1.12,0,0,1,.41,1,1,1,0,0,1-.37.91A3.63,3.63,0,0,1,31.47,7h-.19V4.51Zm-7.44-2H21.57V9.32a2.9,2.9,0,0,1-.61,2,2.39,2.39,0,0,1-1.83.65,2.4,2.4,0,0,1-1.83-.65,2.9,2.9,0,0,1-.61-2V2.5H14.44v7A4.68,4.68,0,0,0,15.62,13a4.83,4.83,0,0,0,3.52,1.16A4.86,4.86,0,0,0,22.66,13a4.7,4.7,0,0,0,1.18-3.47v-7Z"/><path class="cls-3" d="M136.19,69.19V33.59H150V36A17,17,0,0,1,154,34.19a14.91,14.91,0,0,1,4.28-.6c3.09,0,5.46.87,7.08,2.64s2.44,4.31,2.44,7.68v3.94H154.35V44.53a3.52,3.52,0,0,0-.49-2.07,1.7,1.7,0,0,0-1.48-.67,1.75,1.75,0,0,0-1.53.65,3.65,3.65,0,0,0-.47,2.09V69.19Z"/><path class="cls-3" d="M101.08,41.69c0-3,.69-5.15,2.09-6.33s3.83-1.77,7.32-1.77h14q5.25,0,7.37,1.8t2.09,6.3V61.11q0,4.53-2.09,6.32t-7.37,1.78h-14q-5.23,0-7.32-1.75c-1.4-1.18-2.09-3.29-2.09-6.35V41.69Zm14.41,1.51V59.68a3.47,3.47,0,0,0,.48,2,1.7,1.7,0,0,0,1.48.67,1.78,1.78,0,0,0,1.53-.64,3.57,3.57,0,0,0,.47-2.07V43.2a3.55,3.55,0,0,0-.48-2.07,1.78,1.78,0,0,0-1.52-.66,1.71,1.71,0,0,0-1.49.64,3.67,3.67,0,0,0-.47,2.09Z"/><path class="cls-3" d="M53.71,33.59v35.6H39.92V66.71a19.42,19.42,0,0,1-4.3,1.87,16.1,16.1,0,0,1-4.48.61c-3.19,0-5.63-.89-7.32-2.65s-2.52-4.34-2.52-7.7V33.59H35.49V58.24a3.45,3.45,0,0,0,.48,2,1.7,1.7,0,0,0,1.49.67A1.75,1.75,0,0,0,39,60.3a3.51,3.51,0,0,0,.47-2.06V33.59Z"/><polygon class="cls-3" points="2.31 69.19 2.31 23.04 18.56 23.04 18.56 69.19 2.31 69.19 2.31 69.19"/><polygon class="cls-4" points="41.2 19.48 66.44 19.48 84.24 48.35 66.44 81.59 41.2 81.59 59 48.35 41.2 19.48 41.2 19.48"/><polygon class="cls-2" points="114.1 19.48 88.86 19.48 78.9 35.63 86.73 48.33 78.89 62.97 88.86 81.59 114.1 81.59 96.3 48.35 114.1 19.48 114.1 19.48"/></g></g></svg>