<svg id="ubicacion" xmlns="http://www.w3.org/2000/svg" viewBox="0 0 24 24"><defs><style>.cls-1{fill:#e6332a;}</style></defs><path class="cls-1" d="M12.19,24h-.38a5.66,5.66,0,0,1-.54-.43,44,44,0,0,1-4.92-6.06,24.15,24.15,0,0,1-2.56-4.78,9.71,9.71,0,0,1-.7-5A8.94,8.94,0,0,1,5.66,2.63,8.82,8.82,0,0,1,10.7.1l.69-.1h1.22l.6.09a8.65,8.65,0,0,1,5.72,3.2,8.74,8.74,0,0,1,1.67,8.29,19.94,19.94,0,0,1-2.25,4.84A42.94,42.94,0,0,1,13,23.3,8.91,8.91,0,0,1,12.19,24ZM12,13.5A4.5,4.5,0,1,0,7.5,9,4.51,4.51,0,0,0,12,13.5Z"/></svg>